<?xml version="1.0" encoding="UTF-8" standalone="no"?>
<!-- Created with Inkscape (http://www.inkscape.org/) -->

<svg
   xmlns:dc="http://purl.org/dc/elements/1.1/"
   xmlns:cc="http://creativecommons.org/ns#"
   xmlns:rdf="http://www.w3.org/1999/02/22-rdf-syntax-ns#"
   xmlns:svg="http://www.w3.org/2000/svg"
   xmlns="http://www.w3.org/2000/svg"
   xmlns:sodipodi="http://sodipodi.sourceforge.net/DTD/sodipodi-0.dtd"
   xmlns:inkscape="http://www.inkscape.org/namespaces/inkscape"
   width="33.103481mm"
   height="25.296638mm"
   viewBox="0 0 117.2958 89.633758"
   id="svg2"
   version="1.1"
   inkscape:version="0.91 r13725"
   sodipodi:docname="esaude_emblem.svg">
  <defs
     id="defs4">
    <clipPath
       clipPathUnits="userSpaceOnUse"
       id="clipPath4287">
      <ellipse
         style="fill:none;stroke:#000000;stroke-width:1.03618145;stroke-opacity:1"
         id="ellipse4289"
         cx="274.37503"
         cy="624.5274"
         rx="65.96405"
         ry="58.932819" />
    </clipPath>
  </defs>
  <sodipodi:namedview
     id="base"
     pagecolor="#ffffff"
     bordercolor="#666666"
     borderopacity="1.0"
     inkscape:pageopacity="0.0"
     inkscape:pageshadow="2"
     inkscape:zoom="5.6"
     inkscape:cx="15.478592"
     inkscape:cy="41.724985"
     inkscape:document-units="px"
     inkscape:current-layer="layer1"
     showgrid="false"
     inkscape:window-width="1920"
     inkscape:window-height="1059"
     inkscape:window-x="0"
     inkscape:window-y="21"
     inkscape:window-maximized="1"
     fit-margin-top="0"
     fit-margin-left="0"
     fit-margin-right="0"
     fit-margin-bottom="0" />
  <metadata
     id="metadata7">
    <rdf:RDF>
      <cc:Work
         rdf:about="">
        <dc:format>image/svg+xml</dc:format>
        <dc:type
           rdf:resource="http://purl.org/dc/dcmitype/StillImage" />
        <dc:title></dc:title>
      </cc:Work>
    </rdf:RDF>
  </metadata>
  <g
     inkscape:label="Layer 1"
     inkscape:groupmode="layer"
     id="layer1"
     transform="translate(-329.7063,-573.66817)">
    <rect
       style="fill:none"
       id="rect3481"
       width="138.75"
       height="112.14286"
       x="193.39285"
       y="566.11218" />
    <rect
       style="fill:none"
       id="rect3483"
       width="95.535713"
       height="77.5"
       x="184.82143"
       y="565.75507" />
    <g
       id="g4144">
      <path
         sodipodi:nodetypes="cscscccscccscccsccc"
         inkscape:connector-curvature="0"
         id="path4297-3"
         d="m 439.19118,582.61539 c 0,0 19.06663,14.64721 -6.56599,38.89087 -25.63262,24.24366 -30.13533,28.67234 -30.13533,28.67234 0,0 -5.80357,4.01785 -8.75,1.51785 -2.94643,-2.5 0.625,-9.375 0.625,-9.375 l 7.52211,-6.79251 -24.91071,23.125 c 0,0 -6.51786,5 -10.17858,2.23215 -3.66071,-2.76786 0.26786,-9.19643 0.26786,-9.19643 l 25.98214,-24.82143 -29.91071,28.57143 c 0,0 -5.80357,5 -9.73214,1.875 -3.92857,-3.125 -0.12178,-8.09065 -0.12178,-8.09065 l 30.65749,-30.65935 -24.01786,23.03571 c 0,0 -5.98214,4.19643 -9.55357,0.98214 -3.57143,-3.21428 0.89286,-9.375 0.89286,-9.375 l 51.875,-48.83928 c 0,0 19.07271,-14.6664 36.05421,-1.75284 z"
         style="fill:#cf0814;fill-opacity:1;fill-rule:evenodd;stroke:#ffffff;stroke-width:2;stroke-linecap:butt;stroke-linejoin:miter;stroke-miterlimit:4;stroke-dasharray:none;stroke-opacity:1" />
      <path
         sodipodi:nodetypes="cscscccscccscccsccc"
         inkscape:connector-curvature="0"
         id="path4297"
         d="m 337.51722,583.02008 c 0,0 -19.06663,14.64721 6.56599,38.89087 25.63262,24.24366 38.59536,36.87983 38.59536,36.87983 0,0 4.71979,4.62822 8.75,1.51785 4.61557,-3.56214 -0.625,-9.375 -0.625,-9.375 l -15.98214,-15 24.91071,23.125 c 0,0 6.11624,5.43787 10.17858,2.23215 4.82757,-3.80959 -0.26786,-9.19643 -0.26786,-9.19643 l -25.98214,-24.82143 29.91071,28.57143 c 0,0 5.80357,5 9.73214,1.875 3.92857,-3.125 0.12178,-8.09065 0.12178,-8.09065 l -30.65749,-30.65935 24.01786,23.03571 c 0,0 5.98214,4.19643 9.55357,0.98214 3.57143,-3.21428 -0.89286,-9.375 -0.89286,-9.375 l -51.875,-48.83928 c 0,0 -19.07271,-14.6664 -36.05421,-1.75284 z"
         style="fill:#108249;fill-opacity:0.99607843;fill-rule:evenodd;stroke:#ffffff;stroke-width:2;stroke-linecap:butt;stroke-linejoin:miter;stroke-miterlimit:4;stroke-dasharray:none;stroke-opacity:1" />
      <path
         inkscape:connector-curvature="0"
         id="path4293"
         d="m 385.49947,595.26818 -20.96066,20.20305 c 0,0 -3.78807,4.92449 -0.63135,7.95495 3.15673,3.03046 9.09138,-0.25254 9.09138,-0.25254 l 21.08693,-19.57171 c 0,0 10.48033,6.566 29.29443,-3.78807 18.81409,-10.35406 13.38452,-25.75889 1.26269,-25.12754 -12.12183,0.63134 -24.87501,8.08122 -24.87501,8.08122 z"
         style="fill:#f9d536;fill-opacity:1;fill-rule:evenodd;stroke:#ffffff;stroke-width:2;stroke-linecap:butt;stroke-linejoin:miter;stroke-miterlimit:4;stroke-dasharray:none;stroke-opacity:1" />
    </g>
  </g>
</svg>
